<svg width="30" height="30" viewBox="0 0 30 30" fill="none" xmlns="http://www.w3.org/2000/svg">
<path d="M26.25 10V26.2413C26.2512 26.4054 26.22 26.5682 26.1582 26.7203C26.0965 26.8724 26.0053 27.0108 25.8901 27.1277C25.7748 27.2446 25.6377 27.3376 25.4864 27.4015C25.3352 27.4654 25.1729 27.4989 25.0087 27.5H4.99125C4.66227 27.5 4.34674 27.3694 4.114 27.1369C3.88125 26.9044 3.75033 26.589 3.75 26.26V3.74C3.75 3.06875 4.31125 2.5 5.0025 2.5H18.7462L26.25 10ZM23.75 11.25H17.5V5H6.25V25H23.75V11.25ZM10 8.75H13.75V11.25H10V8.75ZM10 13.75H20V16.25H10V13.75ZM10 18.75H20V21.25H10V18.75Z" fill="#FF941A"/>
</svg>
