<svg width="30" height="30" viewBox="0 0 30 30" fill="none" xmlns="http://www.w3.org/2000/svg">
<path d="M22.5 8.75H26.25C26.5815 8.75 26.8995 8.8817 27.1339 9.11612C27.3683 9.35054 27.5 9.66848 27.5 10V25C27.5 25.3315 27.3683 25.6495 27.1339 25.8839C26.8995 26.1183 26.5815 26.25 26.25 26.25H3.75C3.41848 26.25 3.10054 26.1183 2.86612 25.8839C2.6317 25.6495 2.5 25.3315 2.5 25V5C2.5 4.66848 2.6317 4.35054 2.86612 4.11612C3.10054 3.8817 3.41848 3.75 3.75 3.75H22.5V8.75ZM5 11.25V23.75H25V11.25H5ZM5 6.25V8.75H20V6.25H5ZM18.75 16.25H22.5V18.75H18.75V16.25Z" fill="#FF941A"/>
</svg>
