<svg width="72" height="43" viewBox="0 0 72 43" fill="none" xmlns="http://www.w3.org/2000/svg">
<path d="M17.8286 6.32353H19.8858V36.6765H17.8286V6.32353Z" fill="white"/>
<path d="M13.7142 6.32353H15.7714V36.6765H13.7142V6.32353Z" fill="white"/>
<path d="M26.7428 6.32353H28.1142V36.6765H26.7428V6.32353Z" fill="white"/>
<path d="M30.1714 6.32353H32.9142V36.6765H30.1714V6.32353Z" fill="white"/>
<path d="M7.54285 6.32353H10.9714V36.6765H7.54285V6.32353Z" fill="white"/>
<path d="M21.9429 6.32353H25.3714V36.6765H21.9429V6.32353Z" fill="white"/>
<path d="M56.2285 36.6765H53.4857V6.32353H56.2285V36.6765Z" fill="white"/>
<path d="M59.6571 36.6765H58.2857V6.32353H59.6571V36.6765Z" fill="white"/>
<path d="M45.9429 36.6765H44.5714V6.32353H45.9429V36.6765Z" fill="white"/>
<path d="M37.0286 36.6765H35.6571V6.32353H37.0286V36.6765Z" fill="white"/>
<path d="M42.5143 36.6765H39.7714V6.32353H42.5143V36.6765Z" fill="white"/>
<path d="M65.1428 36.6765H62.4V6.32353H65.1428V36.6765Z" fill="white"/>
<path d="M51.4286 36.6765H48V6.32353H51.4286V36.6765Z" fill="white"/>
<path d="M70.6285 20.2353V22.7647H1.3714V20.2353H70.6285Z" fill="#585666"/>
<path fill-rule="evenodd" clip-rule="evenodd" d="M1.37143 0H0V1.26471V7.58824H1.37143V1.26471L8.22857 1.26471V0H1.37143Z" fill="white"/>
<path fill-rule="evenodd" clip-rule="evenodd" d="M70.6286 43L72 43L72 41.7353L72 35.4118L70.6286 35.4118L70.6286 41.7353L63.7714 41.7353L63.7714 43L70.6286 43Z" fill="white"/>
<path fill-rule="evenodd" clip-rule="evenodd" d="M72 1.26471L72 0L70.6286 -5.99471e-08L63.7714 -3.59682e-07L63.7714 1.26471L70.6286 1.26471L70.6286 7.58824L72 7.58824L72 1.26471Z" fill="white"/>
<path fill-rule="evenodd" clip-rule="evenodd" d="M9.95077e-07 35.4118L2.75712e-07 43L1.37143 43L8.22857 43L8.22857 41.7353L1.37143 41.7353L1.37143 35.4118L9.95077e-07 35.4118Z" fill="white"/>
</svg>
